REM GoldWave
FILE "Зазнобин В.М. Беседа о гадании (29 ноября 2007 г.).m4a" BINARY
  TRACK 01 AUDIO
    TITLE "00:00:00.00000"
    PERFORMER "Владимир Михайлович Зазнобин. Видеоархив"
    INDEX 01 00:00:00
  TRACK 02 AUDIO
    TITLE "00:00:13.52091"
    PERFORMER "Владимир Михайлович Зазнобин. Видеоархив"
    INDEX 01 00:13:39
  TRACK 03 AUDIO
    TITLE "00:00:29.01551"
    PERFORMER "Владимир Михайлович Зазнобин. Видеоархив"
    INDEX 01 00:29:01
  TRACK 04 AUDIO
    TITLE "00:00:41.81660"
    PERFORMER "Владимир Михайлович Зазнобин. Видеоархив"
    INDEX 01 00:41:61
  TRACK 05 AUDIO
    TITLE "00:00:54.73379"
    PERFORMER "Владимир Михайлович Зазнобин. Видеоархив"
    INDEX 01 00:54:55
  TRACK 06 AUDIO
    TITLE "00:01:07.95283"
    PERFORMER "Владимир Михайлович Зазнобин. Видеоархив"
    INDEX 01 01:07:71
  TRACK 07 AUDIO
    TITLE "00:01:23.76091"
    PERFORMER "Владимир Михайлович Зазнобин. Видеоархив"
    INDEX 01 01:23:57
  TRACK 08 AUDIO
    TITLE "00:01:39.61542"
    PERFORMER "Владимир Михайлович Зазнобин. Видеоархив"
    INDEX 01 01:39:46
  TRACK 09 AUDIO
    TITLE "00:01:53.34531"
    PERFORMER "Владимир Михайлович Зазнобин. Видеоархив"
    INDEX 01 01:53:26
  TRACK 10 AUDIO
    TITLE "00:02:06.59918"
    PERFORMER "Владимир Михайлович Зазнобин. Видеоархив"
    INDEX 01 02:06:45
  TRACK 11 AUDIO
    TITLE "00:02:21.06050"
    PERFORMER "Владимир Михайлович Зазнобин. Видеоархив"
    INDEX 01 02:21:05
  TRACK 12 AUDIO
    TITLE "00:02:34.61624"
    PERFORMER "Владимир Михайлович Зазнобин. Видеоархив"
    INDEX 01 02:34:46
  TRACK 13 AUDIO
    TITLE "00:02:48.25324"
    PERFORMER "Владимир Михайлович Зазнобин. Видеоархив"
    INDEX 01 02:48:19
  TRACK 14 AUDIO
    TITLE "00:03:07.90422"
    PERFORMER "Владимир Михайлович Зазнобин. Видеоархив"
    INDEX 01 03:07:68
  TRACK 15 AUDIO
    TITLE "00:03:28.98322"
    PERFORMER "Владимир Михайлович Зазнобин. Видеоархив"
    INDEX 01 03:28:74
  TRACK 16 AUDIO
    TITLE "00:03:44.46621"
    PERFORMER "Владимир Михайлович Зазнобин. Видеоархив"
    INDEX 01 03:44:35
  TRACK 17 AUDIO
    TITLE "00:03:58.31220"
    PERFORMER "Владимир Михайлович Зазнобин. Видеоархив"
    INDEX 01 03:58:23
  TRACK 18 AUDIO
    TITLE "00:04:11.67057"
    PERFORMER "Владимир Михайлович Зазнобин. Видеоархив"
    INDEX 01 04:11:50
  TRACK 19 AUDIO
    TITLE "00:04:28.05914"
    PERFORMER "Владимир Михайлович Зазнобин. Видеоархив"
    INDEX 01 04:28:04
  TRACK 20 AUDIO
    TITLE "00:04:41.37107"
    PERFORMER "Владимир Михайлович Зазнобин. Видеоархив"
    INDEX 01 04:41:28
  TRACK 21 AUDIO
    TITLE "00:04:57.05143"
    PERFORMER "Владимир Михайлович Зазнобин. Видеоархив"
    INDEX 01 04:57:04
  TRACK 22 AUDIO
    TITLE "00:05:10.75810"
    PERFORMER "Владимир Михайлович Зазнобин. Видеоархив"
    INDEX 01 05:10:57
  TRACK 23 AUDIO
    TITLE "00:05:25.44000"
    PERFORMER "Владимир Михайлович Зазнобин. Видеоархив"
    INDEX 01 05:25:33
  TRACK 24 AUDIO
    TITLE "00:05:41.46866"
    PERFORMER "Владимир Михайлович Зазнобин. Видеоархив"
    INDEX 01 05:41:35
  TRACK 25 AUDIO
    TITLE "00:05:55.29143"
    PERFORMER "Владимир Михайлович Зазнобин. Видеоархив"
    INDEX 01 05:55:22
  TRACK 26 AUDIO
    TITLE "00:06:08.44082"
    PERFORMER "Владимир Михайлович Зазнобин. Видеоархив"
    INDEX 01 06:08:33
  TRACK 27 AUDIO
    TITLE "00:06:21.77596"
    PERFORMER "Владимир Михайлович Зазнобин. Видеоархив"
    INDEX 01 06:21:58
  TRACK 28 AUDIO
    TITLE "00:06:34.58866"
    PERFORMER "Владимир Михайлович Зазнобин. Видеоархив"
    INDEX 01 06:34:44
  TRACK 29 AUDIO
    TITLE "00:06:50.65215"
    PERFORMER "Владимир Михайлович Зазнобин. Видеоархив"
    INDEX 01 06:50:49
  TRACK 30 AUDIO
    TITLE "00:07:04.01052"
    PERFORMER "Владимир Михайлович Зазнобин. Видеоархив"
    INDEX 01 07:04:01
  TRACK 31 AUDIO
    TITLE "00:07:18.34413"
    PERFORMER "Владимир Михайлович Зазнобин. Видеоархив"
    INDEX 01 07:18:26
  TRACK 32 AUDIO
    TITLE "00:07:31.95791"
    PERFORMER "Владимир Михайлович Зазнобин. Видеоархив"
    INDEX 01 07:31:72
  TRACK 33 AUDIO
    TITLE "00:07:48.06785"
    PERFORMER "Владимир Михайлович Зазнобин. Видеоархив"
    INDEX 01 07:48:05
  TRACK 34 AUDIO
    TITLE "00:08:00.91537"
    PERFORMER "Владимир Михайлович Зазнобин. Видеоархив"
    INDEX 01 08:00:69
  TRACK 35 AUDIO
    TITLE "00:08:13.42621"
    PERFORMER "Владимир Михайлович Зазнобин. Видеоархив"
    INDEX 01 08:13:32
  TRACK 36 AUDIO
    TITLE "00:08:26.52916"
    PERFORMER "Владимир Михайлович Зазнобин. Видеоархив"
    INDEX 01 08:26:40
  TRACK 37 AUDIO
    TITLE "00:08:41.60580"
    PERFORMER "Владимир Михайлович Зазнобин. Видеоархив"
    INDEX 01 08:41:45
  TRACK 38 AUDIO
    TITLE "00:08:56.90304"
    PERFORMER "Владимир Михайлович Зазнобин. Видеоархив"
    INDEX 01 08:56:68
  TRACK 39 AUDIO
    TITLE "00:09:09.80862"
    PERFORMER "Владимир Михайлович Зазнобин. Видеоархив"
    INDEX 01 09:09:61
  TRACK 40 AUDIO
    TITLE "00:09:23.14376"
    PERFORMER "Владимир Михайлович Зазнобин. Видеоархив"
    INDEX 01 09:23:11
  TRACK 41 AUDIO
    TITLE "00:09:38.45261"
    PERFORMER "Владимир Михайлович Зазнобин. Видеоархив"
    INDEX 01 09:38:34
  TRACK 42 AUDIO
    TITLE "00:09:51.39302"
    PERFORMER "Владимир Михайлович Зазнобин. Видеоархив"
    INDEX 01 09:51:29
  TRACK 43 AUDIO
    TITLE "00:10:04.14766"
    PERFORMER "Владимир Михайлович Зазнобин. Видеоархив"
    INDEX 01 10:04:11
  TRACK 44 AUDIO
    TITLE "00:10:17.83111"
    PERFORMER "Владимир Михайлович Зазнобин. Видеоархив"
    INDEX 01 10:17:62
  TRACK 45 AUDIO
    TITLE "00:10:33.15156"
    PERFORMER "Владимир Михайлович Зазнобин. Видеоархив"
    INDEX 01 10:33:11
  TRACK 46 AUDIO
    TITLE "00:10:46.75374"
    PERFORMER "Владимир Михайлович Зазнобин. Видеоархив"
    INDEX 01 10:46:57
  TRACK 47 AUDIO
    TITLE "00:11:01.91166"
    PERFORMER "Владимир Михайлович Зазнобин. Видеоархив"
    INDEX 01 11:01:68
  TRACK 48 AUDIO
    TITLE "00:11:15.61832"
    PERFORMER "Владимир Михайлович Зазнобин. Видеоархив"
    INDEX 01 11:15:46
  TRACK 49 AUDIO
    TITLE "00:11:28.97669"
    PERFORMER "Владимир Михайлович Зазнобин. Видеоархив"
    INDEX 01 11:28:73
  TRACK 50 AUDIO
    TITLE "00:11:42.74141"
    PERFORMER "Владимир Михайлович Зазнобин. Видеоархив"
    INDEX 01 11:42:56
  TRACK 51 AUDIO
    TITLE "00:11:55.44961"
    PERFORMER "Владимир Михайлович Зазнобин. Видеоархив"
    INDEX 01 11:55:34
  TRACK 52 AUDIO
    TITLE "00:12:08.78476"
    PERFORMER "Владимир Михайлович Зазнобин. Видеоархив"
    INDEX 01 12:08:59
  TRACK 53 AUDIO
    TITLE "00:12:23.28091"
    PERFORMER "Владимир Михайлович Зазнобин. Видеоархив"
    INDEX 01 12:23:21
  TRACK 54 AUDIO
    TITLE "00:12:36.88308"
    PERFORMER "Владимир Михайлович Зазнобин. Видеоархив"
    INDEX 01 12:36:66
  TRACK 55 AUDIO
    TITLE "00:12:49.61451"
    PERFORMER "Владимир Михайлович Зазнобин. Видеоархив"
    INDEX 01 12:49:46
  TRACK 56 AUDIO
    TITLE "00:13:02.47365"
    PERFORMER "Владимир Михайлович Зазнобин. Видеоархив"
    INDEX 01 13:02:36
  TRACK 57 AUDIO
    TITLE "00:13:15.28635"
    PERFORMER "Владимир Михайлович Зазнобин. Видеоархив"
    INDEX 01 13:15:21
  TRACK 58 AUDIO
    TITLE "00:13:27.94812"
    PERFORMER "Владимир Михайлович Зазнобин. Видеоархив"
    INDEX 01 13:27:71
  TRACK 59 AUDIO
    TITLE "00:13:40.76082"
    PERFORMER "Владимир Михайлович Зазнобин. Видеоархив"
    INDEX 01 13:40:57
  TRACK 60 AUDIO
    TITLE "00:13:54.64163"
    PERFORMER "Владимир Михайлович Зазнобин. Видеоархив"
    INDEX 01 13:54:48
  TRACK 61 AUDIO
    TITLE "00:14:07.48916"
    PERFORMER "Владимир Михайлович Зазнобин. Видеоархив"
    INDEX 01 14:07:37
  TRACK 62 AUDIO
    TITLE "00:14:23.92417"
    PERFORMER "Владимир Михайлович Зазнобин. Видеоархив"
    INDEX 01 14:23:69
  TRACK 63 AUDIO
    TITLE "00:14:36.44662"
    PERFORMER "Владимир Михайлович Зазнобин. Видеоархив"
    INDEX 01 14:36:33
  TRACK 64 AUDIO
    TITLE "00:14:51.59293"
    PERFORMER "Владимир Михайлович Зазнобин. Видеоархив"
    INDEX 01 14:51:44
  TRACK 65 AUDIO
    TITLE "00:15:05.94975"
    PERFORMER "Владимир Михайлович Зазнобин. Видеоархив"
    INDEX 01 15:05:71
  TRACK 66 AUDIO
    TITLE "00:15:19.63320"
    PERFORMER "Владимир Михайлович Зазнобин. Видеоархив"
    INDEX 01 15:19:47
  TRACK 67 AUDIO
    TITLE "00:15:32.55039"
    PERFORMER "Владимир Михайлович Зазнобин. Видеоархив"
    INDEX 01 15:32:41
  TRACK 68 AUDIO
    TITLE "00:15:45.83909"
    PERFORMER "Владимир Михайлович Зазнобин. Видеоархив"
    INDEX 01 15:45:63
  TRACK 69 AUDIO
    TITLE "00:15:58.67501"
    PERFORMER "Владимир Михайлович Зазнобин. Видеоархив"
    INDEX 01 15:58:51
  TRACK 70 AUDIO
    TITLE "00:16:12.32363"
    PERFORMER "Владимир Михайлович Зазнобин. Видеоархив"
    INDEX 01 16:12:24
  TRACK 71 AUDIO
    TITLE "00:16:25.20599"
    PERFORMER "Владимир Михайлович Зазнобин. Видеоархив"
    INDEX 01 16:25:15
  TRACK 72 AUDIO
    TITLE "00:16:39.44671"
    PERFORMER "Владимир Михайлович Зазнобин. Видеоархив"
    INDEX 01 16:39:34
  TRACK 73 AUDIO
    TITLE "00:16:51.98077"
    PERFORMER "Владимир Михайлович Зазнобин. Видеоархив"
    INDEX 01 16:51:74
  TRACK 74 AUDIO
    TITLE "00:17:05.30431"
    PERFORMER "Владимир Михайлович Зазнобин. Видеоархив"
    INDEX 01 17:05:23
  TRACK 75 AUDIO
    TITLE "00:17:20.60154"
    PERFORMER "Владимир Михайлович Зазнобин. Видеоархив"
    INDEX 01 17:20:45
  TRACK 76 AUDIO
    TITLE "00:17:34.73778"
    PERFORMER "Владимир Михайлович Зазнобин. Видеоархив"
    INDEX 01 17:34:55
  TRACK 77 AUDIO
    TITLE "00:17:48.36317"
    PERFORMER "Владимир Михайлович Зазнобин. Видеоархив"
    INDEX 01 17:48:27
  TRACK 78 AUDIO
    TITLE "00:18:01.25714"
    PERFORMER "Владимир Михайлович Зазнобин. Видеоархив"
    INDEX 01 18:01:19
  TRACK 79 AUDIO
    TITLE "00:18:14.68517"
    PERFORMER "Владимир Михайлович Зазнобин. Видеоархив"
    INDEX 01 18:14:51
  TRACK 80 AUDIO
    TITLE "00:18:29.41351"
    PERFORMER "Владимир Михайлович Зазнобин. Видеоархив"
    INDEX 01 18:29:31
  TRACK 81 AUDIO
    TITLE "00:18:42.99247"
    PERFORMER "Владимир Михайлович Зазнобин. Видеоархив"
    INDEX 01 18:42:74
  TRACK 82 AUDIO
    TITLE "00:18:59.20689"
    PERFORMER "Владимир Михайлович Зазнобин. Видеоархив"
    INDEX 01 18:59:16
  TRACK 83 AUDIO
    TITLE "00:19:15.53741"
    PERFORMER "Владимир Михайлович Зазнобин. Видеоархив"
    INDEX 01 19:15:40
  TRACK 84 AUDIO
    TITLE "00:19:28.38494"
    PERFORMER "Владимир Михайлович Зазнобин. Видеоархив"
    INDEX 01 19:28:29
  TRACK 85 AUDIO
    TITLE "00:19:43.91438"
    PERFORMER "Владимир Михайлович Зазнобин. Видеоархив"
    INDEX 01 19:43:69
  TRACK 86 AUDIO
    TITLE "00:19:56.78512"
    PERFORMER "Владимир Михайлович Зазнобин. Видеоархив"
    INDEX 01 19:56:59
  TRACK 87 AUDIO
    TITLE "00:20:11.22322"
    PERFORMER "Владимир Михайлович Зазнобин. Видеоархив"
    INDEX 01 20:11:17
  TRACK 88 AUDIO
    TITLE "00:20:24.87184"
    PERFORMER "Владимир Михайлович Зазнобин. Видеоархив"
    INDEX 01 20:24:65
  TRACK 89 AUDIO
    TITLE "00:20:38.76426"
    PERFORMER "Владимир Михайлович Зазнобин. Видеоархив"
    INDEX 01 20:38:57
  TRACK 90 AUDIO
    TITLE "00:20:52.59864"
    PERFORMER "Владимир Михайлович Зазнобин. Видеоархив"
    INDEX 01 20:52:45
  TRACK 91 AUDIO
    TITLE "00:21:06.94385"
    PERFORMER "Владимир Михайлович Зазнобин. Видеоархив"
    INDEX 01 21:06:71
  TRACK 92 AUDIO
    TITLE "00:21:19.80299"
    PERFORMER "Владимир Михайлович Зазнобин. Видеоархив"
    INDEX 01 21:19:60
  TRACK 93 AUDIO
    TITLE "00:21:34.06694"
    PERFORMER "Владимир Михайлович Зазнобин. Видеоархив"
    INDEX 01 21:34:05
  TRACK 94 AUDIO
    TITLE "00:21:48.37732"
    PERFORMER "Владимир Михайлович Зазнобин. Видеоархив"
    INDEX 01 21:48:28
  TRACK 95 AUDIO
    TITLE "00:22:01.45705"
    PERFORMER "Владимир Михайлович Зазнобин. Видеоархив"
    INDEX 01 22:01:34
  TRACK 96 AUDIO
    TITLE "00:22:16.66141"
    PERFORMER "Владимир Михайлович Зазнобин. Видеоархив"
    INDEX 01 22:16:50
  TRACK 97 AUDIO
    TITLE "00:22:29.88045"
    PERFORMER "Владимир Михайлович Зазнобин. Видеоархив"
    INDEX 01 22:29:66
  TRACK 98 AUDIO
    TITLE "00:22:45.49116"
    PERFORMER "Владимир Михайлович Зазнобин. Видеоархив"
    INDEX 01 22:45:37
  TRACK 99 AUDIO
    TITLE "00:22:59.13977"
    PERFORMER "Владимир Михайлович Зазнобин. Видеоархив"
    INDEX 01 22:59:10
  TRACK 100 AUDIO
    TITLE "00:23:12.35882"
    PERFORMER "Владимир Михайлович Зазнобин. Видеоархив"
    INDEX 01 23:12:27
  TRACK 101 AUDIO
    TITLE "00:23:26.87819"
    PERFORMER "Владимир Михайлович Зазнобин. Видеоархив"
    INDEX 01 23:26:66
  TRACK 102 AUDIO
    TITLE "00:23:39.30776"
    PERFORMER "Владимир Михайлович Зазнобин. Видеоархив"
    INDEX 01 23:39:23
  TRACK 103 AUDIO
    TITLE "00:23:53.28145"
    PERFORMER "Владимир Михайлович Зазнобин. Видеоархив"
    INDEX 01 23:53:21
  TRACK 104 AUDIO
    TITLE "00:24:08.28844"
    PERFORMER "Владимир Михайлович Зазнобин. Видеоархив"
    INDEX 01 24:08:22
  TRACK 105 AUDIO
    TITLE "00:24:20.91537"
    PERFORMER "Владимир Михайлович Зазнобин. Видеоархив"
    INDEX 01 24:20:69
  TRACK 106 AUDIO
    TITLE "00:24:33.86739"
    PERFORMER "Владимир Михайлович Зазнобин. Видеоархив"
    INDEX 01 24:33:65
  TRACK 107 AUDIO
    TITLE "00:24:46.35501"
    PERFORMER "Владимир Михайлович Зазнобин. Видеоархив"
    INDEX 01 24:46:27
  TRACK 108 AUDIO
    TITLE "00:25:03.12671"
    PERFORMER "Владимир Михайлович Зазнобин. Видеоархив"
    INDEX 01 25:03:10
  TRACK 109 AUDIO
    TITLE "00:25:19.56172"
    PERFORMER "Владимир Михайлович Зазнобин. Видеоархив"
    INDEX 01 25:19:42
  TRACK 110 AUDIO
    TITLE "00:25:32.82721"
    PERFORMER "Владимир Михайлович Зазнобин. Видеоархив"
    INDEX 01 25:32:62
  TRACK 111 AUDIO
    TITLE "00:25:45.59347"
    PERFORMER "Владимир Михайлович Зазнобин. Видеоархив"
    INDEX 01 25:45:45
  TRACK 112 AUDIO
    TITLE "00:25:59.54395"
    PERFORMER "Владимир Михайлович Зазнобин. Видеоархив"
    INDEX 01 25:59:41
  TRACK 113 AUDIO
    TITLE "00:26:13.30866"
    PERFORMER "Владимир Михайлович Зазнобин. Видеоархив"
    INDEX 01 26:13:23
  TRACK 114 AUDIO
    TITLE "00:26:29.13995"
    PERFORMER "Владимир Михайлович Зазнобин. Видеоархив"
    INDEX 01 26:29:10
  TRACK 115 AUDIO
    TITLE "00:26:42.17324"
    PERFORMER "Владимир Михайлович Зазнобин. Видеоархив"
    INDEX 01 26:42:13
  TRACK 116 AUDIO
    TITLE "00:26:55.63610"
    PERFORMER "Владимир Михайлович Зазнобин. Видеоархив"
    INDEX 01 26:55:48
  TRACK 117 AUDIO
    TITLE "00:27:11.09587"
    PERFORMER "Владимир Михайлович Зазнобин. Видеоархив"
    INDEX 01 27:11:07
  TRACK 118 AUDIO
    TITLE "00:27:31.08354"
    PERFORMER "Владимир Михайлович Зазнобин. Видеоархив"
    INDEX 01 27:31:06
  TRACK 119 AUDIO
    TITLE "00:27:44.31420"
    PERFORMER "Владимир Михайлович Зазнобин. Видеоархив"
    INDEX 01 27:44:24
  TRACK 120 AUDIO
    TITLE "00:27:58.35755"
    PERFORMER "Владимир Михайлович Зазнобин. Видеоархив"
    INDEX 01 27:58:27
  TRACK 121 AUDIO
    TITLE "00:28:11.78558"
    PERFORMER "Владимир Михайлович Зазнобин. Видеоархив"
    INDEX 01 28:11:59
  TRACK 122 AUDIO
    TITLE "00:28:26.22367"
    PERFORMER "Владимир Михайлович Зазнобин. Видеоархив"
    INDEX 01 28:26:17
  TRACK 123 AUDIO
    TITLE "00:28:41.03329"
    PERFORMER "Владимир Михайлович Зазнобин. Видеоархив"
    INDEX 01 28:41:02
  TRACK 124 AUDIO
    TITLE "00:28:53.92726"
    PERFORMER "Владимир Михайлович Зазнобин. Видеоархив"
    INDEX 01 28:53:70
  TRACK 125 AUDIO
    TITLE "00:29:08.01705"
    PERFORMER "Владимир Михайлович Зазнобин. Видеоархив"
    INDEX 01 29:08:01
  TRACK 126 AUDIO
    TITLE "00:29:24.70748"
    PERFORMER "Владимир Михайлович Зазнобин. Видеоархив"
    INDEX 01 29:24:53
  TRACK 127 AUDIO
    TITLE "00:29:39.09914"
    PERFORMER "Владимир Михайлович Зазнобин. Видеоархив"
    INDEX 01 29:39:07
  TRACK 128 AUDIO
    TITLE "00:29:59.29578"
    PERFORMER "Владимир Михайлович Зазнобин. Видеоархив"
    INDEX 01 29:59:22
  TRACK 129 AUDIO
    TITLE "00:30:14.31438"
    PERFORMER "Владимир Михайлович Зазнобин. Видеоархив"
    INDEX 01 30:14:24
  TRACK 130 AUDIO
    TITLE "00:30:27.46376"
    PERFORMER "Владимир Михайлович Зазнобин. Видеоархив"
    INDEX 01 30:27:35
  TRACK 131 AUDIO
    TITLE "00:30:40.34612"
    PERFORMER "Владимир Михайлович Зазнобин. Видеоархив"
    INDEX 01 30:40:26
  TRACK 132 AUDIO
    TITLE "00:30:53.85542"
    PERFORMER "Владимир Михайлович Зазнобин. Видеоархив"
    INDEX 01 30:53:64
  TRACK 133 AUDIO
    TITLE "00:31:09.86086"
    PERFORMER "Владимир Михайлович Зазнобин. Видеоархив"
    INDEX 01 31:09:65
  TRACK 134 AUDIO
    TITLE "00:31:24.22930"
    PERFORMER "Владимир Михайлович Зазнобин. Видеоархив"
    INDEX 01 31:24:17
  TRACK 135 AUDIO
    TITLE "00:31:37.30902"
    PERFORMER "Владимир Михайлович Зазнобин. Видеоархив"
    INDEX 01 31:37:23
  TRACK 136 AUDIO
    TITLE "00:31:53.30286"
    PERFORMER "Владимир Михайлович Зазнобин. Видеоархив"
    INDEX 01 31:53:23
  TRACK 137 AUDIO
    TITLE "00:32:06.47546"
    PERFORMER "Владимир Михайлович Зазнобин. Видеоархив"
    INDEX 01 32:06:36
  TRACK 138 AUDIO
    TITLE "00:32:19.85705"
    PERFORMER "Владимир Михайлович Зазнобин. Видеоархив"
    INDEX 01 32:19:64
  TRACK 139 AUDIO
    TITLE "00:32:34.19066"
    PERFORMER "Владимир Михайлович Зазнобин. Видеоархив"
    INDEX 01 32:34:14
  TRACK 140 AUDIO
    TITLE "00:32:47.80444"
    PERFORMER "Владимир Михайлович Зазнобин. Видеоархив"
    INDEX 01 32:47:60
  TRACK 141 AUDIO
    TITLE "00:33:02.93914"
    PERFORMER "Владимир Михайлович Зазнобин. Видеоархив"
    INDEX 01 33:02:70
  TRACK 142 AUDIO
    TITLE "00:33:16.85478"
    PERFORMER "Владимир Михайлович Зазнобин. Видеоархив"
    INDEX 01 33:16:64
  TRACK 143 AUDIO
    TITLE "00:33:29.89968"
    PERFORMER "Владимир Михайлович Зазнобин. Видеоархив"
    INDEX 01 33:29:67
  TRACK 144 AUDIO
    TITLE "00:33:45.11565"
    PERFORMER "Владимир Михайлович Зазнобин. Видеоархив"
    INDEX 01 33:45:09
  TRACK 145 AUDIO
    TITLE "00:33:59.94848"
    PERFORMER "Владимир Михайлович Зазнобин. Видеоархив"
    INDEX 01 33:59:71
  TRACK 146 AUDIO
    TITLE "00:34:13.29524"
    PERFORMER "Владимир Михайлович Зазнобин. Видеоархив"
    INDEX 01 34:13:22
  TRACK 147 AUDIO
    TITLE "00:34:28.32544"
    PERFORMER "Владимир Михайлович Зазнобин. Видеоархив"
    INDEX 01 34:28:24
  TRACK 148 AUDIO
    TITLE "00:34:41.63737"
    PERFORMER "Владимир Михайлович Зазнобин. Видеоархив"
    INDEX 01 34:41:48
  TRACK 149 AUDIO
    TITLE "00:34:55.90132"
    PERFORMER "Владимир Михайлович Зазнобин. Видеоархив"
    INDEX 01 34:55:68
  TRACK 150 AUDIO
    TITLE "00:35:10.29297"
    PERFORMER "Владимир Михайлович Зазнобин. Видеоархив"
    INDEX 01 35:10:22
  TRACK 151 AUDIO
    TITLE "00:35:22.96635"
    PERFORMER "Владимир Михайлович Зазнобин. Видеоархив"
    INDEX 01 35:22:72
  TRACK 152 AUDIO
    TITLE "00:35:37.79918"
    PERFORMER "Владимир Михайлович Зазнобин. Видеоархив"
    INDEX 01 35:37:60
  TRACK 153 AUDIO
    TITLE "00:35:52.01669"
    PERFORMER "Владимир Михайлович Зазнобин. Видеоархив"
    INDEX 01 35:52:01
  TRACK 154 AUDIO
    TITLE "00:36:06.45478"
    PERFORMER "Владимир Михайлович Зазнобин. Видеоархив"
    INDEX 01 36:06:34
  TRACK 155 AUDIO
    TITLE "00:36:20.67229"
    PERFORMER "Владимир Михайлович Зазнобин. Видеоархив"
    INDEX 01 36:20:50
  TRACK 156 AUDIO
    TITLE "00:36:33.64753"
    PERFORMER "Владимир Михайлович Зазнобин. Видеоархив"
    INDEX 01 36:33:49
  TRACK 157 AUDIO
    TITLE "00:36:46.37896"
    PERFORMER "Владимир Михайлович Зазнобин. Видеоархив"
    INDEX 01 36:46:28
  TRACK 158 AUDIO
    TITLE "00:36:58.97107"
    PERFORMER "Владимир Михайлович Зазнобин. Видеоархив"
    INDEX 01 36:58:73
  TRACK 159 AUDIO
    TITLE "00:37:16.59029"
    PERFORMER "Владимир Михайлович Зазнобин. Видеоархив"
    INDEX 01 37:16:44
  TRACK 160 AUDIO
    TITLE "00:37:30.07637"
    PERFORMER "Владимир Михайлович Зазнобин. Видеоархив"
    INDEX 01 37:30:06
  TRACK 161 AUDIO
    TITLE "00:37:44.97887"
    PERFORMER "Владимир Михайлович Зазнобин. Видеоархив"
    INDEX 01 37:44:73
  TRACK 162 AUDIO
    TITLE "00:37:59.28925"
    PERFORMER "Владимир Михайлович Зазнобин. Видеоархив"
    INDEX 01 37:59:22
  TRACK 163 AUDIO
    TITLE "00:38:15.00444"
    PERFORMER "Владимир Михайлович Зазнобин. Видеоархив"
    INDEX 01 38:15:00
  TRACK 164 AUDIO
    TITLE "00:38:29.66313"
    PERFORMER "Владимир Михайлович Зазнобин. Видеоархив"
    INDEX 01 38:29:50
  TRACK 165 AUDIO
    TITLE "00:38:44.92553"
    PERFORMER "Владимир Михайлович Зазнобин. Видеоархив"
    INDEX 01 38:44:69
  TRACK 166 AUDIO
    TITLE "00:38:59.81642"
    PERFORMER "Владимир Михайлович Зазнобин. Видеоархив"
    INDEX 01 38:59:61
  TRACK 167 AUDIO
    TITLE "00:39:13.75528"
    PERFORMER "Владимир Михайлович Зазнобин. Видеоархив"
    INDEX 01 39:13:57
  TRACK 168 AUDIO
    TITLE "00:39:28.93642"
    PERFORMER "Владимир Михайлович Зазнобин. Видеоархив"
    INDEX 01 39:28:70
  TRACK 169 AUDIO
    TITLE "00:39:54.28789"
    PERFORMER "Владимир Михайлович Зазнобин. Видеоархив"
    INDEX 01 39:54:22
  TRACK 170 AUDIO
    TITLE "00:40:06.99610"
    PERFORMER "Владимир Михайлович Зазнобин. Видеоархив"
    INDEX 01 40:07:00
  TRACK 171 AUDIO
    TITLE "00:40:21.41098"
    PERFORMER "Владимир Михайлович Зазнобин. Видеоархив"
    INDEX 01 40:21:31
  TRACK 172 AUDIO
    TITLE "00:40:35.81424"
    PERFORMER "Владимир Михайлович Зазнобин. Видеоархив"
    INDEX 01 40:35:61
  TRACK 173 AUDIO
    TITLE "00:40:51.49460"
    PERFORMER "Владимир Михайлович Зазнобин. Видеоархив"
    INDEX 01 40:51:37
  TRACK 174 AUDIO
    TITLE "00:41:05.27093"
    PERFORMER "Владимир Михайлович Зазнобин. Видеоархив"
    INDEX 01 41:05:20
  TRACK 175 AUDIO
    TITLE "00:41:21.29959"
    PERFORMER "Владимир Михайлович Зазнобин. Видеоархив"
    INDEX 01 41:21:22
  TRACK 176 AUDIO
    TITLE "00:41:34.69279"
    PERFORMER "Владимир Михайлович Зазнобин. Видеоархив"
    INDEX 01 41:34:52
  TRACK 177 AUDIO
    TITLE "00:41:50.05968"
    PERFORMER "Владимир Михайлович Зазнобин. Видеоархив"
    INDEX 01 41:50:04
  TRACK 178 AUDIO
    TITLE "00:42:05.34531"
    PERFORMER "Владимир Михайлович Зазнобин. Видеоархив"
    INDEX 01 42:05:26
  TRACK 179 AUDIO
    TITLE "00:42:18.26249"
    PERFORMER "Владимир Михайлович Зазнобин. Видеоархив"
    INDEX 01 42:18:20
  TRACK 180 AUDIO
    TITLE "00:42:34.61624"
    PERFORMER "Владимир Михайлович Зазнобин. Видеоархив"
    INDEX 01 42:34:46
  TRACK 181 AUDIO
    TITLE "00:43:00.73397"
    PERFORMER "Владимир Михайлович Зазнобин. Видеоархив"
    INDEX 01 43:00:55
  TRACK 182 AUDIO
    TITLE "00:43:15.84544"
    PERFORMER "Владимир Михайлович Зазнобин. Видеоархив"
    INDEX 01 43:15:63
  TRACK 183 AUDIO
    TITLE "00:43:31.99020"
    PERFORMER "Владимир Михайлович Зазнобин. Видеоархив"
    INDEX 01 43:31:74
  TRACK 184 AUDIO
    TITLE "00:43:47.63574"
    PERFORMER "Владимир Михайлович Зазнобин. Видеоархив"
    INDEX 01 43:47:48
  TRACK 185 AUDIO
    TITLE "00:44:00.40200"
    PERFORMER "Владимир Михайлович Зазнобин. Видеоархив"
    INDEX 01 44:00:30
  TRACK 186 AUDIO
    TITLE "00:44:16.11719"
    PERFORMER "Владимир Михайлович Зазнобин. Видеоархив"
    INDEX 01 44:16:09
  TRACK 187 AUDIO
    TITLE "00:44:29.56844"
    PERFORMER "Владимир Михайлович Зазнобин. Видеоархив"
    INDEX 01 44:29:43
  TRACK 188 AUDIO
    TITLE "00:44:48.23256"
    PERFORMER "Владимир Михайлович Зазнобин. Видеоархив"
    INDEX 01 44:48:17
  TRACK 189 AUDIO
    TITLE "00:45:03.76200"
    PERFORMER "Владимир Михайлович Зазнобин. Видеоархив"
    INDEX 01 45:03:57
  TRACK 190 AUDIO
    TITLE "00:45:20.42921"
    PERFORMER "Владимир Михайлович Зазнобин. Видеоархив"
    INDEX 01 45:20:32
  TRACK 191 AUDIO
    TITLE "00:45:33.98494"
    PERFORMER "Владимир Михайлович Зазнобин. Видеоархив"
    INDEX 01 45:33:74
  TRACK 192 AUDIO
    TITLE "00:45:52.74195"
    PERFORMER "Владимир Михайлович Зазнобин. Видеоархив"
    INDEX 01 45:52:56
  TRACK 193 AUDIO
    TITLE "00:46:08.95637"
    PERFORMER "Владимир Михайлович Зазнобин. Видеоархив"
    INDEX 01 46:08:72
  TRACK 194 AUDIO
    TITLE "00:46:22.10576"
    PERFORMER "Владимир Михайлович Зазнобин. Видеоархив"
    INDEX 01 46:22:08
  TRACK 195 AUDIO
    TITLE "00:46:35.95175"
    PERFORMER "Владимир Михайлович Зазнобин. Видеоархив"
    INDEX 01 46:35:71
  TRACK 196 AUDIO
    TITLE "00:46:49.44943"
    PERFORMER "Владимир Михайлович Зазнобин. Видеоархив"
    INDEX 01 46:49:34
  TRACK 197 AUDIO
    TITLE "00:47:03.65533"
    PERFORMER "Владимир Михайлович Зазнобин. Видеоархив"
    INDEX 01 47:03:49
  TRACK 198 AUDIO
    TITLE "00:47:16.42159"
    PERFORMER "Владимир Михайлович Зазнобин. Видеоархив"
    INDEX 01 47:16:32
  TRACK 199 AUDIO
    TITLE "00:47:29.10658"
    PERFORMER "Владимир Михайлович Зазнобин. Видеоархив"
    INDEX 01 47:29:08
  TRACK 200 AUDIO
    TITLE "00:47:45.21651"
    PERFORMER "Владимир Михайлович Зазнобин. Видеоархив"
    INDEX 01 47:45:16
  TRACK 201 AUDIO
    TITLE "00:47:58.47039"
    PERFORMER "Владимир Михайлович Зазнобин. Видеоархив"
    INDEX 01 47:58:35
  TRACK 202 AUDIO
    TITLE "00:48:11.12054"
    PERFORMER "Владимир Михайлович Зазнобин. Видеоархив"
    INDEX 01 48:11:09
  TRACK 203 AUDIO
    TITLE "00:48:23.82875"
    PERFORMER "Владимир Михайлович Зазнобин. Видеоархив"
    INDEX 01 48:23:62
  TRACK 204 AUDIO
    TITLE "00:48:36.94331"
    PERFORMER "Владимир Михайлович Зазнобин. Видеоархив"
    INDEX 01 48:36:71
  TRACK 205 AUDIO
    TITLE "00:48:52.83265"
    PERFORMER "Владимир Михайлович Зазнобин. Видеоархив"
    INDEX 01 48:52:62
  TRACK 206 AUDIO
    TITLE "00:49:07.97896"
    PERFORMER "Владимир Михайлович Зазнобин. Видеоархив"
    INDEX 01 49:07:73
  TRACK 207 AUDIO
    TITLE "00:49:22.27773"
    PERFORMER "Владимир Михайлович Зазнобин. Видеоархив"
    INDEX 01 49:22:21
  TRACK 208 AUDIO
    TITLE "00:49:37.91166"
    PERFORMER "Владимир Михайлович Зазнобин. Видеоархив"
    INDEX 01 49:37:68
  TRACK 209 AUDIO
    TITLE "00:49:50.97977"
    PERFORMER "Владимир Михайлович Зазнобин. Видеоархив"
    INDEX 01 49:50:73
  TRACK 210 AUDIO
    TITLE "00:50:04.88381"
    PERFORMER "Владимир Михайлович Зазнобин. Видеоархив"
    INDEX 01 50:04:66
  TRACK 211 AUDIO
    TITLE "00:50:20.11138"
    PERFORMER "Владимир Михайлович Зазнобин. Видеоархив"
    INDEX 01 50:20:08
  TRACK 212 AUDIO
    TITLE "00:50:34.50304"
    PERFORMER "Владимир Михайлович Зазнобин. Видеоархив"
    INDEX 01 50:34:38
  TRACK 213 AUDIO
    TITLE "00:50:48.25615"
    PERFORMER "Владимир Михайлович Зазнобин. Видеоархив"
    INDEX 01 50:48:19
  TRACK 214 AUDIO
    TITLE "00:51:01.53324"
    PERFORMER "Владимир Михайлович Зазнобин. Видеоархив"
    INDEX 01 51:01:40
  TRACK 215 AUDIO
    TITLE "00:51:14.53170"
    PERFORMER "Владимир Михайлович Зазнобин. Видеоархив"
    INDEX 01 51:14:40
  TRACK 216 AUDIO
    TITLE "00:51:28.08744"
    PERFORMER "Владимир Михайлович Зазнобин. Видеоархив"
    INDEX 01 51:28:07
  TRACK 217 AUDIO
    TITLE "00:51:42.50231"
    PERFORMER "Владимир Михайлович Зазнобин. Видеоархив"
    INDEX 01 51:42:38
  TRACK 218 AUDIO
    TITLE "00:51:56.55728"
    PERFORMER "Владимир Михайлович Зазнобин. Видеоархив"
    INDEX 01 51:56:42
  TRACK 219 AUDIO
    TITLE "00:52:09.66023"
    PERFORMER "Владимир Михайлович Зазнобин. Видеоархив"
    INDEX 01 52:09:50
  TRACK 220 AUDIO
    TITLE "00:52:24.67882"
    PERFORMER "Владимир Михайлович Зазнобин. Видеоархив"
    INDEX 01 52:24:51
  TRACK 221 AUDIO
    TITLE "00:52:37.54957"
    PERFORMER "Владимир Михайлович Зазнобин. Видеоархив"
    INDEX 01 52:37:41
  TRACK 222 AUDIO
    TITLE "00:52:50.83828"
    PERFORMER "Владимир Михайлович Зазнобин. Видеоархив"
    INDEX 01 52:50:63
  TRACK 223 AUDIO
    TITLE "00:53:05.79882"
    PERFORMER "Владимир Михайлович Зазнобин. Видеоархив"
    INDEX 01 53:05:60
  TRACK 224 AUDIO
    TITLE "00:53:20.05116"
    PERFORMER "Владимир Михайлович Зазнобин. Видеоархив"
    INDEX 01 53:20:04
  TRACK 225 AUDIO
    TITLE "00:53:57.23320"
    PERFORMER "Владимир Михайлович Зазнобин. Видеоархив"
    INDEX 01 53:57:17
  TRACK 226 AUDIO
    TITLE "00:54:13.22703"
    PERFORMER "Владимир Михайлович Зазнобин. Видеоархив"
    INDEX 01 54:13:17
  TRACK 227 AUDIO
    TITLE "00:54:28.87256"
    PERFORMER "Владимир Михайлович Зазнобин. Видеоархив"
    INDEX 01 54:28:65
  TRACK 228 AUDIO
    TITLE "00:54:43.94921"
    PERFORMER "Владимир Михайлович Зазнобин. Видеоархив"
    INDEX 01 54:43:71
  TRACK 229 AUDIO
    TITLE "00:54:56.50649"
    PERFORMER "Владимир Михайлович Зазнобин. Видеоархив"
    INDEX 01 54:56:38
  TRACK 230 AUDIO
    TITLE "00:55:13.38268"
    PERFORMER "Владимир Михайлович Зазнобин. Видеоархив"
    INDEX 01 55:13:29
  TRACK 231 AUDIO
    TITLE "00:55:26.65977"
    PERFORMER "Владимир Михайлович Зазнобин. Видеоархив"
    INDEX 01 55:26:49
  TRACK 232 AUDIO
    TITLE "00:55:40.27356"
    PERFORMER "Владимир Михайлович Зазнобин. Видеоархив"
    INDEX 01 55:40:21
  TRACK 233 AUDIO
    TITLE "00:55:53.57388"
    PERFORMER "Владимир Михайлович Зазнобин. Видеоархив"
    INDEX 01 55:53:43
  TRACK 234 AUDIO
    TITLE "00:56:06.40980"
    PERFORMER "Владимир Михайлович Зазнобин. Видеоархив"
    INDEX 01 56:06:31
  TRACK 235 AUDIO
    TITLE "00:56:19.04834"
    PERFORMER "Владимир Михайлович Зазнобин. Видеоархив"
    INDEX 01 56:19:04
  TRACK 236 AUDIO
    TITLE "00:56:32.02358"
    PERFORMER "Владимир Михайлович Зазнобин. Видеоархив"
    INDEX 01 56:32:02
  TRACK 237 AUDIO
    TITLE "00:56:44.98721"
    PERFORMER "Владимир Михайлович Зазнобин. Видеоархив"
    INDEX 01 56:44:74
  TRACK 238 AUDIO
    TITLE "00:56:59.35565"
    PERFORMER "Владимир Михайлович Зазнобин. Видеоархив"
    INDEX 01 56:59:27
  TRACK 239 AUDIO
    TITLE "00:57:13.36417"
    PERFORMER "Владимир Михайлович Зазнобин. Видеоархив"
    INDEX 01 57:13:27
  TRACK 240 AUDIO
    TITLE "00:57:27.80227"
    PERFORMER "Владимир Михайлович Зазнобин. Видеоархив"
    INDEX 01 57:27:60
  TRACK 241 AUDIO
    TITLE "00:57:41.33478"
    PERFORMER "Владимир Михайлович Зазнобин. Видеоархив"
    INDEX 01 57:41:25
  TRACK 242 AUDIO
    TITLE "00:58:00.24272"
    PERFORMER "Владимир Михайлович Зазнобин. Видеоархив"
    INDEX 01 58:00:18
  TRACK 243 AUDIO
    TITLE "00:58:13.42694"
    PERFORMER "Владимир Михайлович Зазнобин. Видеоархив"
    INDEX 01 58:13:32
  TRACK 244 AUDIO
    TITLE "00:58:27.08717"
    PERFORMER "Владимир Михайлович Зазнобин. Видеоархив"
    INDEX 01 58:27:07
  TRACK 245 AUDIO
    TITLE "00:58:42.23347"
    PERFORMER "Владимир Михайлович Зазнобин. Видеоархив"
    INDEX 01 58:42:18
  TRACK 246 AUDIO
    TITLE "00:58:59.01678"
    PERFORMER "Владимир Михайлович Зазнобин. Видеоархив"
    INDEX 01 58:59:01
  TRACK 247 AUDIO
    TITLE "00:59:11.91075"
    PERFORMER "Владимир Михайлович Зазнобин. Видеоархив"
    INDEX 01 59:11:68
  TRACK 248 AUDIO
    TITLE "00:59:28.89143"
    PERFORMER "Владимир Михайлович Зазнобин. Видеоархив"
    INDEX 01 59:28:67
  TRACK 249 AUDIO
    TITLE "00:59:46.33651"
    PERFORMER "Владимир Михайлович Зазнобин. Видеоархив"
    INDEX 01 59:46:25
  TRACK 250 AUDIO
    TITLE "01:00:02.40000"
    PERFORMER "Владимир Михайлович Зазнобин. Видеоархив"
    INDEX 01 60:02:30
  TRACK 251 AUDIO
    TITLE "01:00:16.64073"
    PERFORMER "Владимир Михайлович Зазнобин. Видеоархив"
    INDEX 01 60:16:48
  TRACK 252 AUDIO
    TITLE "01:00:31.03238"
    PERFORMER "Владимир Михайлович Зазнобин. Видеоархив"
    INDEX 01 60:31:02
  TRACK 253 AUDIO
    TITLE "01:00:44.26304"
    PERFORMER "Владимир Михайлович Зазнобин. Видеоархив"
    INDEX 01 60:44:20
  TRACK 254 AUDIO
    TITLE "01:00:58.08580"
    PERFORMER "Владимир Михайлович Зазнобин. Видеоархив"
    INDEX 01 60:58:06
  TRACK 255 AUDIO
    TITLE "01:01:13.01152"
    PERFORMER "Владимир Михайлович Зазнобин. Видеоархив"
    INDEX 01 61:13:01
  TRACK 256 AUDIO
    TITLE "01:01:25.98676"
    PERFORMER "Владимир Михайлович Зазнобин. Видеоархив"
    INDEX 01 61:25:74
  TRACK 257 AUDIO
    TITLE "01:01:41.91093"
    PERFORMER "Владимир Михайлович Зазнобин. Видеоархив"
    INDEX 01 61:41:68
  TRACK 258 AUDIO
    TITLE "01:01:56.18649"
    PERFORMER "Владимир Михайлович Зазнобин. Видеоархив"
    INDEX 01 61:56:14
  TRACK 259 AUDIO
    TITLE "01:02:09.38231"
    PERFORMER "Владимир Михайлович Зазнобин. Видеоархив"
    INDEX 01 62:09:29
  TRACK 260 AUDIO
    TITLE "01:02:22.19501"
    PERFORMER "Владимир Михайлович Зазнобин. Видеоархив"
    INDEX 01 62:22:15
  TRACK 261 AUDIO
    TITLE "01:02:35.11220"
    PERFORMER "Владимир Михайлович Зазнобин. Видеоархив"
    INDEX 01 62:35:08
  TRACK 262 AUDIO
    TITLE "01:02:48.19193"
    PERFORMER "Владимир Михайлович Зазнобин. Видеоархив"
    INDEX 01 62:48:14
  TRACK 263 AUDIO
    TITLE "01:03:03.93034"
    PERFORMER "Владимир Михайлович Зазнобин. Видеоархив"
    INDEX 01 63:03:70
  TRACK 264 AUDIO
    TITLE "01:03:17.90404"
    PERFORMER "Владимир Михайлович Зазнобин. Видеоархив"
    INDEX 01 63:17:68
  TRACK 265 AUDIO
    TITLE "01:03:31.69197"
    PERFORMER "Владимир Михайлович Зазнобин. Видеоархив"
    INDEX 01 63:31:52
  TRACK 266 AUDIO
    TITLE "01:03:44.86458"
    PERFORMER "Владимир Михайлович Зазнобин. Видеоархив"
    INDEX 01 63:44:65
  TRACK 267 AUDIO
    TITLE "01:03:59.89478"
    PERFORMER "Владимир Михайлович Зазнобин. Видеоархив"
    INDEX 01 63:59:67
  TRACK 268 AUDIO
    TITLE "01:04:13.89170"
    PERFORMER "Владимир Михайлович Зазнобин. Видеоархив"
    INDEX 01 64:13:67
  TRACK 269 AUDIO
    TITLE "01:04:27.80735"
    PERFORMER "Владимир Михайлович Зазнобин. Видеоархив"
    INDEX 01 64:27:61
  TRACK 270 AUDIO
    TITLE "01:04:41.85070"
    PERFORMER "Владимир Михайлович Зазнобин. Видеоархив"
    INDEX 01 64:41:64
  TRACK 271 AUDIO
    TITLE "01:04:57.00862"
    PERFORMER "Владимир Михайлович Зазнобин. Видеоархив"
    INDEX 01 64:57:01
  TRACK 272 AUDIO
    TITLE "01:05:11.11002"
    PERFORMER "Владимир Михайлович Зазнобин. Видеоархив"
    INDEX 01 65:11:08
  TRACK 273 AUDIO
    TITLE "01:05:25.17660"
    PERFORMER "Владимир Михайлович Зазнобин. Видеоархив"
    INDEX 01 65:25:13
  TRACK 274 AUDIO
    TITLE "01:05:38.52336"
    PERFORMER "Владимир Михайлович Зазнобин. Видеоархив"
    INDEX 01 65:38:39
  TRACK 275 AUDIO
    TITLE "01:05:53.41424"
    PERFORMER "Владимир Михайлович Зазнобин. Видеоархив"
    INDEX 01 65:53:31
  TRACK 276 AUDIO
    TITLE "01:06:06.48236"
    PERFORMER "Владимир Михайлович Зазнобин. Видеоархив"
    INDEX 01 66:06:36
  TRACK 277 AUDIO
    TITLE "01:06:20.58376"
    PERFORMER "Владимир Михайлович Зазнобин. Видеоархив"
    INDEX 01 66:20:44
  TRACK 278 AUDIO
    TITLE "01:06:36.19447"
    PERFORMER "Владимир Михайлович Зазнобин. Видеоархив"
    INDEX 01 66:36:15
  TRACK 279 AUDIO
    TITLE "01:06:52.17669"
    PERFORMER "Владимир Михайлович Зазнобин. Видеоархив"
    INDEX 01 66:52:13
  TRACK 280 AUDIO
    TITLE "01:07:05.92980"
    PERFORMER "Владимир Михайлович Зазнобин. Видеоархив"
    INDEX 01 67:05:70
  TRACK 281 AUDIO
    TITLE "01:07:19.25333"
    PERFORMER "Владимир Михайлович Зазнобин. Видеоархив"
    INDEX 01 67:19:19
  TRACK 282 AUDIO
    TITLE "01:07:32.03120"
    PERFORMER "Владимир Михайлович Зазнобин. Видеоархив"
    INDEX 01 67:32:02
  TRACK 283 AUDIO
    TITLE "01:07:45.77270"
    PERFORMER "Владимир Михайлович Зазнобин. Видеоархив"
    INDEX 01 67:45:58
  TRACK 284 AUDIO
    TITLE "01:07:58.43447"
    PERFORMER "Владимир Михайлович Зазнобин. Видеоархив"
    INDEX 01 67:58:33
  TRACK 285 AUDIO
    TITLE "01:08:11.47937"
    PERFORMER "Владимир Михайлович Зазнобин. Видеоархив"
    INDEX 01 68:11:36
  TRACK 286 AUDIO
    TITLE "01:08:25.44145"
    PERFORMER "Владимир Михайлович Зазнобин. Видеоархив"
    INDEX 01 68:25:33
  TRACK 287 AUDIO
    TITLE "01:08:42.02739"
    PERFORMER "Владимир Михайлович Зазнобин. Видеоархив"
    INDEX 01 68:42:02
  TRACK 288 AUDIO
    TITLE "01:08:57.02277"
    PERFORMER "Владимир Михайлович Зазнобин. Видеоархив"
    INDEX 01 68:57:02
  TRACK 289 AUDIO
    TITLE "01:09:10.91519"
    PERFORMER "Владимир Михайлович Зазнобин. Видеоархив"
    INDEX 01 69:10:69
  TRACK 290 AUDIO
    TITLE "01:09:36.48726"
    PERFORMER "Владимир Михайлович Зазнобин. Видеоархив"
    INDEX 01 69:36:37
  TRACK 291 AUDIO
    TITLE "01:09:50.25197"
    PERFORMER "Владимир Михайлович Зазнобин. Видеоархив"
    INDEX 01 69:50:19
  TRACK 292 AUDIO
    TITLE "01:10:08.05696"
    PERFORMER "Владимир Михайлович Зазнобин. Видеоархив"
    INDEX 01 70:08:04
  TRACK 293 AUDIO
    TITLE "01:10:21.07864"
    PERFORMER "Владимир Михайлович Зазнобин. Видеоархив"
    INDEX 01 70:21:06
  TRACK 294 AUDIO
    TITLE "01:10:33.89134"
    PERFORMER "Владимир Михайлович Зазнобин. Видеоархив"
    INDEX 01 70:33:67
  TRACK 295 AUDIO
    TITLE "01:10:46.50667"
    PERFORMER "Владимир Михайлович Зазнобин. Видеоархив"
    INDEX 01 70:46:38
  TRACK 296 AUDIO
    TITLE "01:11:00.81705"
    PERFORMER "Владимир Михайлович Зазнобин. Видеоархив"
    INDEX 01 71:00:61
  TRACK 297 AUDIO
    TITLE "01:11:13.97805"
    PERFORMER "Владимир Михайлович Зазнобин. Видеоархив"
    INDEX 01 71:13:73
  TRACK 298 AUDIO
    TITLE "01:11:26.74431"
    PERFORMER "Владимир Михайлович Зазнобин. Видеоархив"
    INDEX 01 71:26:56
  TRACK 299 AUDIO
    TITLE "01:11:40.59029"
    PERFORMER "Владимир Михайлович Зазнобин. Видеоархив"
    INDEX 01 71:40:44
  TRACK 300 AUDIO
    TITLE "01:11:55.82948"
    PERFORMER "Владимир Михайлович Зазнобин. Видеоархив"
    INDEX 01 71:55:62
  TRACK 301 AUDIO
    TITLE "01:12:08.58413"
    PERFORMER "Владимир Михайлович Зазнобин. Видеоархив"
    INDEX 01 72:08:44
  TRACK 302 AUDIO
    TITLE "01:12:24.67084"
    PERFORMER "Владимир Михайлович Зазнобин. Видеоархив"
    INDEX 01 72:24:50
  TRACK 303 AUDIO
    TITLE "01:12:37.25134"
    PERFORMER "Владимир Михайлович Зазнобин. Видеоархив"
    INDEX 01 72:37:19
  TRACK 304 AUDIO
    TITLE "01:12:50.09887"
    PERFORMER "Владимир Михайлович Зазнобин. Видеоархив"
    INDEX 01 72:50:07
  TRACK 305 AUDIO
    TITLE "01:13:03.92163"
    PERFORMER "Владимир Михайлович Зазнобин. Видеоархив"
    INDEX 01 73:03:69
  TRACK 306 AUDIO
    TITLE "01:13:16.88526"
    PERFORMER "Владимир Михайлович Зазнобин. Видеоархив"
    INDEX 01 73:16:66
  TRACK 307 AUDIO
    TITLE "01:13:36.38531"
    PERFORMER "Владимир Михайлович Зазнобин. Видеоархив"
    INDEX 01 73:36:29
  TRACK 308 AUDIO
    TITLE "01:13:49.89460"
    PERFORMER "Владимир Михайлович Зазнобин. Видеоархив"
    INDEX 01 73:49:67
  TRACK 309 AUDIO
    TITLE "01:14:03.57805"
    PERFORMER "Владимир Михайлович Зазнобин. Видеоархив"
    INDEX 01 74:03:43
  TRACK 310 AUDIO
    TITLE "01:14:16.59973"
    PERFORMER "Владимир Михайлович Зазнобин. Видеоархив"
    INDEX 01 74:16:45
  TRACK 311 AUDIO
    TITLE "01:14:32.60517"
    PERFORMER "Владимир Михайлович Зазнобин. Видеоархив"
    INDEX 01 74:32:45
  TRACK 312 AUDIO
    TITLE "01:14:45.25533"
    PERFORMER "Владимир Михайлович Зазнобин. Видеоархив"
    INDEX 01 74:45:19
  TRACK 313 AUDIO
    TITLE "01:14:59.42639"
    PERFORMER "Владимир Михайлович Зазнобин. Видеоархив"
    INDEX 01 74:59:32
  TRACK 314 AUDIO
    TITLE "01:15:12.56417"
    PERFORMER "Владимир Михайлович Зазнобин. Видеоархив"
    INDEX 01 75:12:42
  TRACK 315 AUDIO
    TITLE "01:15:26.72363"
    PERFORMER "Владимир Михайлович Зазнобин. Видеоархив"
    INDEX 01 75:26:54
  TRACK 316 AUDIO
    TITLE "01:15:42.03247"
    PERFORMER "Владимир Михайлович Зазнобин. Видеоархив"
    INDEX 01 75:42:02
  TRACK 317 AUDIO
    TITLE "01:15:56.94658"
    PERFORMER "Владимир Михайлович Зазнобин. Видеоархив"
    INDEX 01 75:56:71
  TRACK 318 AUDIO
    TITLE "01:16:09.67800"
    PERFORMER "Владимир Михайлович Зазнобин. Видеоархив"
    INDEX 01 76:09:51
  TRACK 319 AUDIO
    TITLE "01:16:25.28871"
    PERFORMER "Владимир Михайлович Зазнобин. Видеоархив"
    INDEX 01 76:25:22
  TRACK 320 AUDIO
    TITLE "01:16:37.99692"
    PERFORMER "Владимир Михайлович Зазнобин. Видеоархив"
    INDEX 01 76:38:00
  TRACK 321 AUDIO
    TITLE "01:16:51.83129"
    PERFORMER "Владимир Михайлович Зазнобин. Видеоархив"
    INDEX 01 76:51:62
  TRACK 322 AUDIO
    TITLE "01:17:05.17805"
    PERFORMER "Владимир Михайлович Зазнобин. Видеоархив"
    INDEX 01 77:05:13
  TRACK 323 AUDIO
    TITLE "01:17:18.46676"
    PERFORMER "Владимир Михайлович Зазнобин. Видеоархив"
    INDEX 01 77:18:35
  TRACK 324 AUDIO
    TITLE "01:17:31.08209"
    PERFORMER "Владимир Михайлович Зазнобин. Видеоархив"
    INDEX 01 77:31:06
  TRACK 325 AUDIO
    TITLE "01:17:46.36771"
    PERFORMER "Владимир Михайлович Зазнобин. Видеоархив"
    INDEX 01 77:46:28
  TRACK 326 AUDIO
    TITLE "01:18:00.19048"
    PERFORMER "Владимир Михайлович Зазнобин. Видеоархив"
    INDEX 01 78:00:14
  TRACK 327 AUDIO
    TITLE "01:18:13.07283"
    PERFORMER "Владимир Михайлович Зазнобин. Видеоархив"
    INDEX 01 78:13:05
  TRACK 328 AUDIO
    TITLE "01:18:26.37315"
    PERFORMER "Владимир Михайлович Зазнобин. Видеоархив"
    INDEX 01 78:26:28
  TRACK 329 AUDIO
    TITLE "01:18:42.08834"
    PERFORMER "Владимир Михайлович Зазнобин. Видеоархив"
    INDEX 01 78:42:07
  TRACK 330 AUDIO
    TITLE "01:18:55.01714"
    PERFORMER "Владимир Михайлович Зазнобин. Видеоархив"
    INDEX 01 78:55:01
  TRACK 331 AUDIO
    TITLE "01:19:09.31592"
    PERFORMER "Владимир Михайлович Зазнобин. Видеоархив"
    INDEX 01 79:09:24
  TRACK 332 AUDIO
    TITLE "01:19:24.31129"
    PERFORMER "Владимир Михайлович Зазнобин. Видеоархив"
    INDEX 01 79:24:23
  TRACK 333 AUDIO
    TITLE "01:19:38.54041"
    PERFORMER "Владимир Михайлович Зазнобин. Видеоархив"
    INDEX 01 79:38:41
  TRACK 334 AUDIO
    TITLE "01:19:52.42122"
    PERFORMER "Владимир Михайлович Зазнобин. Видеоархив"
    INDEX 01 79:52:32
  TRACK 335 AUDIO
    TITLE "01:20:05.35002"
    PERFORMER "Владимир Михайлович Зазнобин. Видеоархив"
    INDEX 01 80:05:26
  TRACK 336 AUDIO
    TITLE "01:20:18.52263"
    PERFORMER "Владимир Михайлович Зазнобин. Видеоархив"
    INDEX 01 80:18:39
  TRACK 337 AUDIO
    TITLE "01:20:31.82295"
    PERFORMER "Владимир Михайлович Зазнобин. Видеоархив"
    INDEX 01 80:31:62
  TRACK 338 AUDIO
    TITLE "01:20:44.99556"
    PERFORMER "Владимир Михайлович Зазнобин. Видеоархив"
    INDEX 01 80:45:00
  TRACK 339 AUDIO
    TITLE "01:20:58.16816"
    PERFORMER "Владимир Михайлович Зазнобин. Видеоархив"
    INDEX 01 80:58:13
  TRACK 340 AUDIO
    TITLE "01:21:12.59465"
    PERFORMER "Владимир Михайлович Зазнобин. Видеоархив"
    INDEX 01 81:12:45
  TRACK 341 AUDIO
    TITLE "01:21:26.37098"
    PERFORMER "Владимир Михайлович Зазнобин. Видеоархив"
    INDEX 01 81:26:28
  TRACK 342 AUDIO
    TITLE "01:21:39.11401"
    PERFORMER "Владимир Михайлович Зазнобин. Видеоархив"
    INDEX 01 81:39:09
  TRACK 343 AUDIO
    TITLE "01:21:55.94376"
    PERFORMER "Владимир Михайлович Зазнобин. Видеоархив"
    INDEX 01 81:55:71
  TRACK 344 AUDIO
    TITLE "01:22:09.51111"
    PERFORMER "Владимир Михайлович Зазнобин. Видеоархив"
    INDEX 01 82:09:38
  TRACK 345 AUDIO
    TITLE "01:22:22.33542"
    PERFORMER "Владимир Михайлович Зазнобин. Видеоархив"
    INDEX 01 82:22:25
  TRACK 346 AUDIO
    TITLE "01:22:35.62413"
    PERFORMER "Владимир Михайлович Зазнобин. Видеоархив"
    INDEX 01 82:35:47
  TRACK 347 AUDIO
    TITLE "01:22:48.52971"
    PERFORMER "Владимир Михайлович Зазнобин. Видеоархив"
    INDEX 01 82:48:40
  TRACK 348 AUDIO
    TITLE "01:23:02.46857"
    PERFORMER "Владимир Михайлович Зазнобин. Видеоархив"
    INDEX 01 83:02:35
  TRACK 349 AUDIO
    TITLE "01:23:15.40898"
    PERFORMER "Владимир Михайлович Зазнобин. Видеоархив"
    INDEX 01 83:15:31
  TRACK 350 AUDIO
    TITLE "01:23:29.34785"
    PERFORMER "Владимир Михайлович Зазнобин. Видеоархив"
    INDEX 01 83:29:26
  TRACK 351 AUDIO
    TITLE "01:23:43.53052"
    PERFORMER "Владимир Михайлович Зазнобин. Видеоархив"
    INDEX 01 83:43:40
  TRACK 352 AUDIO
    TITLE "01:23:56.23873"
    PERFORMER "Владимир Михайлович Зазнобин. Видеоархив"
    INDEX 01 83:56:18
  TRACK 353 AUDIO
    TITLE "01:24:09.89896"
    PERFORMER "Владимир Михайлович Зазнобин. Видеоархив"
    INDEX 01 84:09:67
  TRACK 354 AUDIO
    TITLE "01:24:23.83782"
    PERFORMER "Владимир Михайлович Зазнобин. Видеоархив"
    INDEX 01 84:23:63
  TRACK 355 AUDIO
    TITLE "01:24:44.44082"
    PERFORMER "Владимир Михайлович Зазнобин. Видеоархив"
    INDEX 01 84:44:33
  TRACK 356 AUDIO
    TITLE "01:24:58.75120"
    PERFORMER "Владимир Михайлович Зазнобин. Видеоархив"
    INDEX 01 84:58:56
  TRACK 357 AUDIO
    TITLE "01:25:11.27365"
    PERFORMER "Владимир Михайлович Зазнобин. Видеоархив"
    INDEX 01 85:11:21
  TRACK 358 AUDIO
    TITLE "01:25:23.83093"
    PERFORMER "Владимир Михайлович Зазнобин. Видеоархив"
    INDEX 01 85:23:62
  TRACK 359 AUDIO
    TITLE "01:25:36.99193"
    PERFORMER "Владимир Михайлович Зазнобин. Видеоархив"
    INDEX 01 85:36:74
  TRACK 360 AUDIO
    TITLE "01:25:50.23420"
    PERFORMER "Владимир Михайлович Зазнобин. Видеоархив"
    INDEX 01 85:50:18
  TRACK 361 AUDIO
    TITLE "01:26:04.11501"
    PERFORMER "Владимир Михайлович Зазнобин. Видеоархив"
    INDEX 01 86:04:09
  TRACK 362 AUDIO
    TITLE "01:26:17.53143"
    PERFORMER "Владимир Михайлович Зазнобин. Видеоархив"
    INDEX 01 86:17:40
  TRACK 363 AUDIO
    TITLE "01:26:31.63283"
    PERFORMER "Владимир Михайлович Зазнобин. Видеоархив"
    INDEX 01 86:31:47
  TRACK 364 AUDIO
    TITLE "01:26:45.03764"
    PERFORMER "Владимир Михайлович Зазнобин. Видеоархив"
    INDEX 01 86:45:03
  TRACK 365 AUDIO
    TITLE "01:26:58.30313"
    PERFORMER "Владимир Михайлович Зазнобин. Видеоархив"
    INDEX 01 86:58:23
  TRACK 366 AUDIO
    TITLE "01:27:11.06939"
    PERFORMER "Владимир Михайлович Зазнобин. Видеоархив"
    INDEX 01 87:11:05
  TRACK 367 AUDIO
    TITLE "01:27:23.83565"
    PERFORMER "Владимир Михайлович Зазнобин. Видеоархив"
    INDEX 01 87:23:63
  TRACK 368 AUDIO
    TITLE "01:27:36.33488"
    PERFORMER "Владимир Михайлович Зазнобин. Видеоархив"
    INDEX 01 87:36:25
  TRACK 369 AUDIO
    TITLE "01:27:48.96181"
    PERFORMER "Владимир Михайлович Зазнобин. Видеоархив"
    INDEX 01 87:48:72
  TRACK 370 AUDIO
    TITLE "01:28:03.81787"
    PERFORMER "Владимир Михайлович Зазнобин. Видеоархив"
    INDEX 01 88:03:61
  TRACK 371 AUDIO
    TITLE "01:28:16.73506"
    PERFORMER "Владимир Михайлович Зазнобин. Видеоархив"
    INDEX 01 88:16:55
  TRACK 372 AUDIO
    TITLE "01:28:30.17469"
    PERFORMER "Владимир Михайлович Зазнобин. Видеоархив"
    INDEX 01 88:30:13
  TRACK 373 AUDIO
    TITLE "01:28:44.17161"
    PERFORMER "Владимир Михайлович Зазнобин. Видеоархив"
    INDEX 01 88:44:13
  TRACK 374 AUDIO
    TITLE "01:28:57.39066"
    PERFORMER "Владимир Михайлович Зазнобин. Видеоархив"
    INDEX 01 88:57:29
  TRACK 375 AUDIO
    TITLE "01:29:12.53696"
    PERFORMER "Владимир Михайлович Зазнобин. Видеоархив"
    INDEX 01 89:12:40
  TRACK 376 AUDIO
    TITLE "01:29:26.58032"
    PERFORMER "Владимир Михайлович Зазнобин. Видеоархив"
    INDEX 01 89:26:44
  TRACK 377 AUDIO
    TITLE "01:29:40.80943"
    PERFORMER "Владимир Михайлович Зазнобин. Видеоархив"
    INDEX 01 89:40:61
  TRACK 378 AUDIO
    TITLE "01:29:56.65234"
    PERFORMER "Владимир Михайлович Зазнобин. Видеоархив"
    INDEX 01 89:56:49
  TRACK 379 AUDIO
    TITLE "01:30:11.45034"
    PERFORMER "Владимир Михайлович Зазнобин. Видеоархив"
    INDEX 01 90:11:34
  TRACK 380 AUDIO
    TITLE "01:30:26.39927"
    PERFORMER "Владимир Михайлович Зазнобин. Видеоархив"
    INDEX 01 90:26:30
  TRACK 381 AUDIO
    TITLE "01:30:40.40780"
    PERFORMER "Владимир Михайлович Зазнобин. Видеоархив"
    INDEX 01 90:40:31
  TRACK 382 AUDIO
    TITLE "01:30:55.05488"
    PERFORMER "Владимир Михайлович Зазнобин. Видеоархив"
    INDEX 01 90:55:04
  TRACK 383 AUDIO
    TITLE "01:31:08.20426"
    PERFORMER "Владимир Михайлович Зазнобин. Видеоархив"
    INDEX 01 91:08:15
  TRACK 384 AUDIO
    TITLE "01:31:21.19111"
    PERFORMER "Владимир Михайлович Зазнобин. Видеоархив"
    INDEX 01 91:21:14
  TRACK 385 AUDIO
    TITLE "01:31:37.28943"
    PERFORMER "Владимир Михайлович Зазнобин. Видеоархив"
    INDEX 01 91:37:22
  TRACK 386 AUDIO
    TITLE "01:31:52.43574"
    PERFORMER "Владимир Михайлович Зазнобин. Видеоархив"
    INDEX 01 91:52:33
  TRACK 387 AUDIO
    TITLE "01:32:06.43265"
    PERFORMER "Владимир Михайлович Зазнобин. Видеоархив"
    INDEX 01 92:06:32
  TRACK 388 AUDIO
    TITLE "01:32:20.65016"
    PERFORMER "Владимир Михайлович Зазнобин. Видеоархив"
    INDEX 01 92:20:49
  TRACK 389 AUDIO
    TITLE "01:32:33.07973"
    PERFORMER "Владимир Михайлович Зазнобин. Видеоархив"
    INDEX 01 92:33:06
  TRACK 390 AUDIO
    TITLE "01:32:48.05188"
    PERFORMER "Владимир Михайлович Зазнобин. Видеоархив"
    INDEX 01 92:48:04
  TRACK 391 AUDIO
    TITLE "01:33:01.65406"
    PERFORMER "Владимир Михайлович Зазнобин. Видеоархив"
    INDEX 01 93:01:49
  TRACK 392 AUDIO
    TITLE "01:33:16.01088"
    PERFORMER "Владимир Михайлович Зазнобин. Видеоархив"
    INDEX 01 93:16:01
  TRACK 393 AUDIO
    TITLE "01:33:29.07900"
    PERFORMER "Владимир Михайлович Зазнобин. Видеоархив"
    INDEX 01 93:29:06
  TRACK 394 AUDIO
    TITLE "01:33:43.21524"
    PERFORMER "Владимир Михайлович Зазнобин. Видеоархив"
    INDEX 01 93:43:16
  TRACK 395 AUDIO
    TITLE "01:33:56.85224"
    PERFORMER "Владимир Михайлович Зазнобин. Видеоархив"
    INDEX 01 93:56:64
  TRACK 396 AUDIO
    TITLE "01:34:10.96526"
    PERFORMER "Владимир Михайлович Зазнобин. Видеоархив"
    INDEX 01 94:10:72
  TRACK 397 AUDIO
    TITLE "01:34:26.11156"
    PERFORMER "Владимир Михайлович Зазнобин. Видеоархив"
    INDEX 01 94:26:08
  TRACK 398 AUDIO
    TITLE "01:34:38.91265"
    PERFORMER "Владимир Михайлович Зазнобин. Видеоархив"
    INDEX 01 94:38:68
  TRACK 399 AUDIO
    TITLE "01:34:51.91111"
    PERFORMER "Владимир Михайлович Зазнобин. Видеоархив"
    INDEX 01 94:51:68
  TRACK 400 AUDIO
    TITLE "01:35:07.04580"
    PERFORMER "Владимир Михайлович Зазнобин. Видеоархив"
    INDEX 01 95:07:03
  TRACK 401 AUDIO
    TITLE "01:35:20.38095"
    PERFORMER "Владимир Михайлович Зазнобин. Видеоархив"
    INDEX 01 95:20:29
  TRACK 402 AUDIO
    TITLE "01:35:32.88018"
    PERFORMER "Владимир Михайлович Зазнобин. Видеоархив"
    INDEX 01 95:32:66
  TRACK 403 AUDIO
    TITLE "01:35:46.21533"
    PERFORMER "Владимир Михайлович Зазнобин. Видеоархив"
    INDEX 01 95:46:16
  TRACK 404 AUDIO
    TITLE "01:36:02.08145"
    PERFORMER "Владимир Михайлович Зазнобин. Видеоархив"
    INDEX 01 96:02:06
  TRACK 405 AUDIO
    TITLE "01:36:14.68517"
    PERFORMER "Владимир Михайлович Зазнобин. Видеоархив"
    INDEX 01 96:14:51
  TRACK 406 AUDIO
    TITLE "01:36:28.89107"
    PERFORMER "Владимир Михайлович Зазнобин. Видеоархив"
    INDEX 01 96:28:67
  TRACK 407 AUDIO
    TITLE "01:36:43.66585"
    PERFORMER "Владимир Михайлович Зазнобин. Видеоархив"
    INDEX 01 96:43:50
  TRACK 408 AUDIO
    TITLE "01:37:00.11247"
    PERFORMER "Владимир Михайлович Зазнобин. Видеоархив"
    INDEX 01 97:00:08
  TRACK 409 AUDIO
    TITLE "01:37:13.52889"
    PERFORMER "Владимир Михайлович Зазнобин. Видеоархив"
    INDEX 01 97:13:40
  TRACK 410 AUDIO
    TITLE "01:37:26.06295"
    PERFORMER "Владимир Михайлович Зазнобин. Видеоархив"
    INDEX 01 97:26:05
  TRACK 411 AUDIO
    TITLE "01:37:39.06141"
    PERFORMER "Владимир Михайлович Зазнобин. Видеоархив"
    INDEX 01 97:39:05
  TRACK 412 AUDIO
    TITLE "01:37:54.18449"
    PERFORMER "Владимир Михайлович Зазнобин. Видеоархив"
    INDEX 01 97:54:14
  TRACK 413 AUDIO
    TITLE "01:38:10.13188"
    PERFORMER "Владимир Михайлович Зазнобин. Видеоархив"
    INDEX 01 98:10:10
  TRACK 414 AUDIO
    TITLE "01:38:24.02431"
    PERFORMER "Владимир Михайлович Зазнобин. Видеоархив"
    INDEX 01 98:24:02
  TRACK 415 AUDIO
    TITLE "01:38:38.38113"
    PERFORMER "Владимир Михайлович Зазнобин. Видеоархив"
    INDEX 01 98:38:29
  TRACK 416 AUDIO
    TITLE "01:38:55.67528"
    PERFORMER "Владимир Михайлович Зазнобин. Видеоархив"
    INDEX 01 98:55:51
  TRACK 417 AUDIO
    TITLE "01:39:09.40517"
    PERFORMER "Владимир Михайлович Зазнобин. Видеоархив"
    INDEX 01 99:09:30
  TRACK 418 AUDIO
    TITLE "01:39:25.12036"
    PERFORMER "Владимир Михайлович Зазнобин. Видеоархив"
    INDEX 01 99:25:09
  TRACK 419 AUDIO
    TITLE "01:39:39.17533"
    PERFORMER "Владимир Михайлович Зазнобин. Видеоархив"
    INDEX 01 99:39:13
  TRACK 420 AUDIO
    TITLE "01:39:52.53370"
    PERFORMER "Владимир Михайлович Зазнобин. Видеоархив"
    INDEX 01 99:52:40
  TRACK 421 AUDIO
    TITLE "01:40:05.75274"
    PERFORMER "Владимир Михайлович Зазнобин. Видеоархив"
    INDEX 01 100:05:56
  TRACK 422 AUDIO
    TITLE "01:40:20.55075"
    PERFORMER "Владимир Михайлович Зазнобин. Видеоархив"
    INDEX 01 100:20:41
  TRACK 423 AUDIO
    TITLE "01:40:33.45633"
    PERFORMER "Владимир Михайлович Зазнобин. Видеоархив"
    INDEX 01 100:33:34
  TRACK 424 AUDIO
    TITLE "01:40:49.39211"
    PERFORMER "Владимир Михайлович Зазнобин. Видеоархив"
    INDEX 01 100:49:29
